<?xml version="1.0" encoding="UTF-8"?>
<svg id="Layer_1" data-name="Layer 1" xmlns="http://www.w3.org/2000/svg" viewBox="0 0 325.56 470.84">
  <defs>
    <style>
      .cls-1 {
        fill: #0057ff;
      }
    </style>
  </defs>
  <path class="cls-1" d="M281.91,188.91v-26.69c0-4.13-4.38-6.8-8.04-4.88l-135.82,70.58c-3.96,2.06-3.96,7.73,0,9.79l149.79,77.3c3.98,2.04,3.98,7.73,0,9.79L8.04,470.2c-3.66,1.92-8.04-.76-8.04-4.88v-123.21c0-2.06,1.14-3.94,2.97-4.88l69.78-36.27c1.58-.82,3.47-.82,5.07,0l35.47,18.31c3.98,2.04,3.98,7.73,0,9.79l-66.69,34.67c-1.83.95-2.97,2.84-2.97,4.88v24.9c0,4.13,4.38,6.8,8.04,4.88l141.35-73.44c3.96-2.06,3.96-7.73,0-9.79L42.98,237.72c-3.98-2.04-3.98-7.73,0-9.79L317.52,85.26c3.66-1.92,8.04.76,8.04,4.88v125.27c0,2.06-1.14,3.94-2.97,4.88l-62.84,32.65c-1.58.82-3.47.82-5.07,0l-35.47-18.29c-3.98-2.04-3.98-7.73,0-9.79l59.74-31.05c1.83-.95,2.97-2.84,2.97-4.88l-.02-.02Z"/>
  <path class="cls-1" d="M43.62,78.12v34.27c0,2.04,1.12,3.92,2.93,4.86l51.64,27.43c3.92,2.08,3.89,7.7-.04,9.75l-35.11,18.25c-1.6.84-3.52.82-5.12-.02L2.95,143.44c-1.79-.95-2.93-2.82-2.93-4.86V5.52C.02,1.37,4.44-1.3,8.13.65l181.56,96.47c3.92,2.08,3.89,7.7-.04,9.75l-35.13,18.25c-1.6.84-3.52.82-5.14-.02l-97.65-51.89c-3.66-1.96-8.1.72-8.1,4.86v.04Z"/>
</svg>